<svg xmlns="http://www.w3.org/2000/svg" xmlns:xlink="http://www.w3.org/1999/xlink" contentStyleType="text/css" height="701px" preserveAspectRatio="none" style="width:712px;height:701px;" version="1.1" viewBox="0 0 712 701" width="712px" zoomAndPan="magnify"><defs><filter height="300%" id="f1e5at20w1wyq5" width="300%" x="-1" y="-1"><feGaussianBlur result="blurOut" stdDeviation="2.0"/><feColorMatrix in="blurOut" result="blurOut2" type="matrix" values="0 0 0 0 0 0 0 0 0 0 0 0 0 0 0 0 0 0 .4 0"/><feOffset dx="4.0" dy="4.0" in="blurOut2" result="blurOut3"/><feBlend in="SourceGraphic" in2="blurOut3" mode="normal"/></filter></defs><g><!--class User--><g id="elem_User"><rect codeLine="19" fill="#FEFECE" filter="url(#f1e5at20w1wyq5)" height="107.9276" id="User" rx="2.5" ry="2.5" style="stroke:#A80036;stroke-width:0.5;" width="124.1743" x="217" y="27"/><ellipse cx="262.8087" cy="43" fill="#ADD1B2" rx="11" ry="11" style="stroke:#181818;stroke-width:1.0;"/><path d="M265.7775,48.6406 Q265.1994,48.9375 264.5587,49.0781 Q263.9181,49.2344 263.215,49.2344 Q260.715,49.2344 259.3869,47.5938 Q258.0744,45.9375 258.0744,42.8125 Q258.0744,39.6875 259.3869,38.0313 Q260.715,36.375 263.215,36.375 Q263.9181,36.375 264.5587,36.5313 Q265.215,36.6875 265.7775,36.9844 L265.7775,39.7031 Q265.1525,39.125 264.5587,38.8594 Q263.965,38.5781 263.34,38.5781 Q261.9962,38.5781 261.3087,39.6563 Q260.6212,40.7188 260.6212,42.8125 Q260.6212,44.9063 261.3087,45.9844 Q261.9962,47.0469 263.34,47.0469 Q263.965,47.0469 264.5587,46.7813 Q265.1525,46.5 265.7775,45.9219 L265.7775,48.6406 Z " fill="#000000"/><text fill="#000000" font-family="sans-serif" font-size="11" lengthAdjust="spacing" textLength="24.0568" x="283.3087" y="47.268">User</text><line style="stroke:#A80036;stroke-width:0.5;" x1="218" x2="340.1743" y1="59" y2="59"/><ellipse cx="228" cy="71.9909" fill="none" rx="3" ry="3" style="stroke:#038048;stroke-width:1.0;"/><text fill="#000000" font-family="sans-serif" font-size="11" lengthAdjust="spacing" textLength="43.4167" x="237" y="74.7589">String id</text><ellipse cx="228" cy="86.9728" fill="none" rx="3" ry="3" style="stroke:#038048;stroke-width:1.0;"/><text fill="#000000" font-family="sans-serif" font-size="11" lengthAdjust="spacing" textLength="63.2715" x="237" y="89.7408">String name</text><ellipse cx="228" cy="101.9547" fill="none" rx="3" ry="3" style="stroke:#038048;stroke-width:1.0;"/><text fill="#000000" font-family="sans-serif" font-size="11" lengthAdjust="spacing" textLength="62.1496" x="237" y="104.7227">String email</text><ellipse cx="228" cy="116.9366" fill="none" rx="3" ry="3" style="stroke:#038048;stroke-width:1.0;"/><text fill="#000000" font-family="sans-serif" font-size="11" lengthAdjust="spacing" textLength="98.1743" x="237" y="119.7046">String profilePhoto</text><line style="stroke:#A80036;stroke-width:0.5;" x1="218" x2="340.1743" y1="126.9276" y2="126.9276"/></g><!--class Group--><g id="elem_Group"><rect codeLine="26" fill="#FEFECE" filter="url(#f1e5at20w1wyq5)" height="137.8913" id="Group" rx="2.5" ry="2.5" style="stroke:#A80036;stroke-width:0.5;" width="150.2881" x="474" y="12"/><ellipse cx="528.5097" cy="28" fill="#ADD1B2" rx="11" ry="11" style="stroke:#181818;stroke-width:1.0;"/><path d="M531.4784,33.6406 Q530.9003,33.9375 530.2597,34.0781 Q529.6191,34.2344 528.9159,34.2344 Q526.4159,34.2344 525.0878,32.5938 Q523.7753,30.9375 523.7753,27.8125 Q523.7753,24.6875 525.0878,23.0313 Q526.4159,21.375 528.9159,21.375 Q529.6191,21.375 530.2597,21.5313 Q530.9159,21.6875 531.4784,21.9844 L531.4784,24.7031 Q530.8534,24.125 530.2597,23.8594 Q529.6659,23.5781 529.0409,23.5781 Q527.6972,23.5781 527.0097,24.6563 Q526.3222,25.7188 526.3222,27.8125 Q526.3222,29.9063 527.0097,30.9844 Q527.6972,32.0469 529.0409,32.0469 Q529.6659,32.0469 530.2597,31.7813 Q530.8534,31.5 531.4784,30.9219 L531.4784,33.6406 Z " fill="#000000"/><text fill="#000000" font-family="sans-serif" font-size="11" lengthAdjust="spacing" textLength="32.7688" x="549.0097" y="32.268">Group</text><line style="stroke:#A80036;stroke-width:0.5;" x1="475" x2="623.2881" y1="44" y2="44"/><ellipse cx="485" cy="56.9909" fill="none" rx="3" ry="3" style="stroke:#038048;stroke-width:1.0;"/><text fill="#000000" font-family="sans-serif" font-size="11" lengthAdjust="spacing" textLength="43.4167" x="494" y="59.7589">String id</text><ellipse cx="485" cy="71.9728" fill="none" rx="3" ry="3" style="stroke:#038048;stroke-width:1.0;"/><text fill="#000000" font-family="sans-serif" font-size="11" lengthAdjust="spacing" textLength="53.6356" x="494" y="74.7408">String title</text><ellipse cx="485" cy="86.9547" fill="none" rx="3" ry="3" style="stroke:#038048;stroke-width:1.0;"/><text fill="#000000" font-family="sans-serif" font-size="11" lengthAdjust="spacing" textLength="91.7394" x="494" y="89.7227">String description</text><ellipse cx="485" cy="101.9366" fill="none" rx="3" ry="3" style="stroke:#038048;stroke-width:1.0;"/><text fill="#000000" font-family="sans-serif" font-size="11" lengthAdjust="spacing" textLength="57.2436" x="494" y="104.7046">Int iconRes</text><ellipse cx="485" cy="116.9185" fill="none" rx="3" ry="3" style="stroke:#038048;stroke-width:1.0;"/><text fill="#000000" font-family="sans-serif" font-size="11" lengthAdjust="spacing" textLength="124.2881" x="494" y="119.6865">List&lt;String&gt; memberIds</text><ellipse cx="485" cy="131.9004" fill="none" rx="3" ry="3" style="stroke:#038048;stroke-width:1.0;"/><text fill="#000000" font-family="sans-serif" font-size="11" lengthAdjust="spacing" textLength="64.6575" x="494" y="134.6684">String photo</text><line style="stroke:#A80036;stroke-width:0.5;" x1="475" x2="623.2881" y1="141.8913" y2="141.8913"/></g><!--class Member--><g id="elem_Member"><rect codeLine="35" fill="#FEFECE" filter="url(#f1e5at20w1wyq5)" height="137.8913" id="Member" rx="2.5" ry="2.5" style="stroke:#A80036;stroke-width:0.5;" width="101.8335" x="387" y="237"/><ellipse cx="413.6351" cy="253" fill="#ADD1B2" rx="11" ry="11" style="stroke:#181818;stroke-width:1.0;"/><path d="M416.6039,258.6406 Q416.0257,258.9375 415.3851,259.0781 Q414.7445,259.2344 414.0414,259.2344 Q411.5414,259.2344 410.2132,257.5938 Q408.9007,255.9375 408.9007,252.8125 Q408.9007,249.6875 410.2132,248.0313 Q411.5414,246.375 414.0414,246.375 Q414.7445,246.375 415.3851,246.5313 Q416.0414,246.6875 416.6039,246.9844 L416.6039,249.7031 Q415.9789,249.125 415.3851,248.8594 Q414.7914,248.5781 414.1664,248.5781 Q412.8226,248.5781 412.1351,249.6563 Q411.4476,250.7188 411.4476,252.8125 Q411.4476,254.9063 412.1351,255.9844 Q412.8226,257.0469 414.1664,257.0469 Q414.7914,257.0469 415.3851,256.7813 Q415.9789,256.5 416.6039,255.9219 L416.6039,258.6406 Z " fill="#000000"/><text fill="#000000" font-family="sans-serif" font-size="11" lengthAdjust="spacing" textLength="43.9777" x="430.2207" y="257.268">Member</text><line style="stroke:#A80036;stroke-width:0.5;" x1="388" x2="487.8335" y1="269" y2="269"/><ellipse cx="398" cy="281.9909" fill="none" rx="3" ry="3" style="stroke:#038048;stroke-width:1.0;"/><text fill="#000000" font-family="sans-serif" font-size="11" lengthAdjust="spacing" textLength="43.4167" x="407" y="284.7589">String id</text><ellipse cx="398" cy="296.9728" fill="none" rx="3" ry="3" style="stroke:#038048;stroke-width:1.0;"/><text fill="#000000" font-family="sans-serif" font-size="11" lengthAdjust="spacing" textLength="75.8335" x="407" y="299.7408">String groupId</text><ellipse cx="398" cy="311.9547" fill="none" rx="3" ry="3" style="stroke:#038048;stroke-width:1.0;"/><text fill="#000000" font-family="sans-serif" font-size="11" lengthAdjust="spacing" textLength="67.1215" x="407" y="314.7227">String userId</text><ellipse cx="398" cy="326.9366" fill="none" rx="3" ry="3" style="stroke:#038048;stroke-width:1.0;"/><text fill="#000000" font-family="sans-serif" font-size="11" lengthAdjust="spacing" textLength="63.2715" x="407" y="329.7046">String name</text><ellipse cx="398" cy="341.9185" fill="none" rx="3" ry="3" style="stroke:#038048;stroke-width:1.0;"/><text fill="#000000" font-family="sans-serif" font-size="11" lengthAdjust="spacing" textLength="62.1496" x="407" y="344.6865">String email</text><ellipse cx="398" cy="356.9004" fill="none" rx="3" ry="3" style="stroke:#038048;stroke-width:1.0;"/><text fill="#000000" font-family="sans-serif" font-size="11" lengthAdjust="spacing" textLength="54.0536" x="407" y="359.6684">String role</text><line style="stroke:#A80036;stroke-width:0.5;" x1="388" x2="487.8335" y1="366.8913" y2="366.8913"/></g><!--class Expense--><g id="elem_Expense"><rect codeLine="44" fill="#FEFECE" filter="url(#f1e5at20w1wyq5)" height="197.8189" id="Expense" rx="2.5" ry="2.5" style="stroke:#A80036;stroke-width:0.5;" width="193.5948" x="507" y="207"/><ellipse cx="577.9601" cy="223" fill="#ADD1B2" rx="11" ry="11" style="stroke:#181818;stroke-width:1.0;"/><path d="M580.9288,228.6406 Q580.3507,228.9375 579.7101,229.0781 Q579.0694,229.2344 578.3663,229.2344 Q575.8663,229.2344 574.5382,227.5938 Q573.2257,225.9375 573.2257,222.8125 Q573.2257,219.6875 574.5382,218.0313 Q575.8663,216.375 578.3663,216.375 Q579.0694,216.375 579.7101,216.5313 Q580.3663,216.6875 580.9288,216.9844 L580.9288,219.7031 Q580.3038,219.125 579.7101,218.8594 Q579.1163,218.5781 578.4913,218.5781 Q577.1476,218.5781 576.4601,219.6563 Q575.7726,220.7188 575.7726,222.8125 Q575.7726,224.9063 576.4601,225.9844 Q577.1476,227.0469 578.4913,227.0469 Q579.1163,227.0469 579.7101,226.7813 Q580.3038,226.5 580.9288,225.9219 L580.9288,228.6406 Z " fill="#000000"/><text fill="#000000" font-family="sans-serif" font-size="11" lengthAdjust="spacing" textLength="43.1747" x="598.4601" y="227.268">Expense</text><line style="stroke:#A80036;stroke-width:0.5;" x1="508" x2="699.5948" y1="239" y2="239"/><ellipse cx="518" cy="251.9909" fill="none" rx="3" ry="3" style="stroke:#038048;stroke-width:1.0;"/><text fill="#000000" font-family="sans-serif" font-size="11" lengthAdjust="spacing" textLength="43.4167" x="527" y="254.7589">String id</text><ellipse cx="518" cy="266.9728" fill="none" rx="3" ry="3" style="stroke:#038048;stroke-width:1.0;"/><text fill="#000000" font-family="sans-serif" font-size="11" lengthAdjust="spacing" textLength="75.8335" x="527" y="269.7408">String groupId</text><ellipse cx="518" cy="281.9547" fill="none" rx="3" ry="3" style="stroke:#038048;stroke-width:1.0;"/><text fill="#000000" font-family="sans-serif" font-size="11" lengthAdjust="spacing" textLength="53.6356" x="527" y="284.7227">String title</text><ellipse cx="518" cy="296.9366" fill="none" rx="3" ry="3" style="stroke:#038048;stroke-width:1.0;"/><text fill="#000000" font-family="sans-serif" font-size="11" lengthAdjust="spacing" textLength="91.7394" x="527" y="299.7046">String description</text><ellipse cx="518" cy="311.9185" fill="none" rx="3" ry="3" style="stroke:#038048;stroke-width:1.0;"/><text fill="#000000" font-family="sans-serif" font-size="11" lengthAdjust="spacing" textLength="80.8274" x="527" y="314.6865">Double amount</text><ellipse cx="518" cy="326.9004" fill="none" rx="3" ry="3" style="stroke:#038048;stroke-width:1.0;"/><text fill="#000000" font-family="sans-serif" font-size="11" lengthAdjust="spacing" textLength="56.9246" x="527" y="329.6684">String date</text><ellipse cx="518" cy="341.8823" fill="none" rx="3" ry="3" style="stroke:#038048;stroke-width:1.0;"/><text fill="#000000" font-family="sans-serif" font-size="11" lengthAdjust="spacing" textLength="73.6005" x="527" y="344.6502">String payerId</text><ellipse cx="518" cy="356.8642" fill="none" rx="3" ry="3" style="stroke:#038048;stroke-width:1.0;"/><text fill="#000000" font-family="sans-serif" font-size="11" lengthAdjust="spacing" textLength="167.5948" x="527" y="359.6321">List&lt;ExpenseShare&gt; participants</text><ellipse cx="518" cy="371.846" fill="none" rx="3" ry="3" style="stroke:#038048;stroke-width:1.0;"/><text fill="#000000" font-family="sans-serif" font-size="11" lengthAdjust="spacing" textLength="79.0125" x="527" y="374.614">String category</text><ellipse cx="518" cy="386.8279" fill="none" rx="3" ry="3" style="stroke:#038048;stroke-width:1.0;"/><text fill="#000000" font-family="sans-serif" font-size="11" lengthAdjust="spacing" textLength="69.6185" x="527" y="389.5959">String receipt</text><line style="stroke:#A80036;stroke-width:0.5;" x1="508" x2="699.5948" y1="396.8189" y2="396.8189"/></g><!--class ExpenseShare--><g id="elem_ExpenseShare"><rect codeLine="57" fill="#FEFECE" filter="url(#f1e5at20w1wyq5)" height="92.9457" id="ExpenseShare" rx="2.5" ry="2.5" style="stroke:#A80036;stroke-width:0.5;" width="137.0332" x="327.5" y="529.5"/><ellipse cx="356.9467" cy="545.5" fill="#ADD1B2" rx="11" ry="11" style="stroke:#181818;stroke-width:1.0;"/><path d="M359.9154,551.1406 Q359.3373,551.4375 358.6967,551.5781 Q358.0561,551.7344 357.3529,551.7344 Q354.8529,551.7344 353.5248,550.0938 Q352.2123,548.4375 352.2123,545.3125 Q352.2123,542.1875 353.5248,540.5313 Q354.8529,538.875 357.3529,538.875 Q358.0561,538.875 358.6967,539.0313 Q359.3529,539.1875 359.9154,539.4844 L359.9154,542.2031 Q359.2904,541.625 358.6967,541.3594 Q358.1029,541.0781 357.4779,541.0781 Q356.1342,541.0781 355.4467,542.1563 Q354.7592,543.2188 354.7592,545.3125 Q354.7592,547.4063 355.4467,548.4844 Q356.1342,549.5469 357.4779,549.5469 Q358.1029,549.5469 358.6967,549.2813 Q359.2904,549 359.9154,548.4219 L359.9154,551.1406 Z " fill="#000000"/><text fill="#000000" font-family="sans-serif" font-size="11" lengthAdjust="spacing" textLength="72.9294" x="374.1571" y="549.768">ExpenseShare</text><line style="stroke:#A80036;stroke-width:0.5;" x1="328.5" x2="463.5332" y1="561.5" y2="561.5"/><ellipse cx="338.5" cy="574.4909" fill="none" rx="3" ry="3" style="stroke:#038048;stroke-width:1.0;"/><text fill="#000000" font-family="sans-serif" font-size="11" lengthAdjust="spacing" textLength="67.1215" x="347.5" y="577.2589">String userId</text><ellipse cx="338.5" cy="589.4728" fill="none" rx="3" ry="3" style="stroke:#038048;stroke-width:1.0;"/><text fill="#000000" font-family="sans-serif" font-size="11" lengthAdjust="spacing" textLength="111.0332" x="347.5" y="592.2408">Double amountOwed</text><ellipse cx="338.5" cy="604.4547" fill="none" rx="3" ry="3" style="stroke:#038048;stroke-width:1.0;"/><text fill="#000000" font-family="sans-serif" font-size="11" lengthAdjust="spacing" textLength="67.8695" x="347.5" y="607.2227">Boolean paid</text><line style="stroke:#A80036;stroke-width:0.5;" x1="328.5" x2="463.5332" y1="614.4457" y2="614.4457"/></g><!--class FriendRequest--><g id="elem_FriendRequest"><rect codeLine="63" fill="#FEFECE" filter="url(#f1e5at20w1wyq5)" height="167.8551" id="FriendRequest" rx="2.5" ry="2.5" style="stroke:#A80036;stroke-width:0.5;" width="132.2372" x="6" y="222"/><ellipse cx="32.3975" cy="238" fill="#ADD1B2" rx="11" ry="11" style="stroke:#181818;stroke-width:1.0;"/><path d="M35.3663,243.6406 Q34.7881,243.9375 34.1475,244.0781 Q33.5069,244.2344 32.8038,244.2344 Q30.3038,244.2344 28.9756,242.5938 Q27.6631,240.9375 27.6631,237.8125 Q27.6631,234.6875 28.9756,233.0313 Q30.3038,231.375 32.8038,231.375 Q33.5069,231.375 34.1475,231.5313 Q34.8038,231.6875 35.3663,231.9844 L35.3663,234.7031 Q34.7413,234.125 34.1475,233.8594 Q33.5538,233.5781 32.9288,233.5781 Q31.585,233.5781 30.8975,234.6563 Q30.21,235.7188 30.21,237.8125 Q30.21,239.9063 30.8975,240.9844 Q31.585,242.0469 32.9288,242.0469 Q33.5538,242.0469 34.1475,241.7813 Q34.7413,241.5 35.3663,240.9219 L35.3663,243.6406 Z " fill="#000000"/><text fill="#000000" font-family="sans-serif" font-size="11" lengthAdjust="spacing" textLength="74.9094" x="48.9303" y="242.268">FriendRequest</text><line style="stroke:#A80036;stroke-width:0.5;" x1="7" x2="137.2372" y1="254" y2="254"/><ellipse cx="17" cy="266.9909" fill="none" rx="3" ry="3" style="stroke:#038048;stroke-width:1.0;"/><text fill="#000000" font-family="sans-serif" font-size="11" lengthAdjust="spacing" textLength="43.4167" x="26" y="269.7589">String id</text><ellipse cx="17" cy="281.9728" fill="none" rx="3" ry="3" style="stroke:#038048;stroke-width:1.0;"/><text fill="#000000" font-family="sans-serif" font-size="11" lengthAdjust="spacing" textLength="80.0904" x="26" y="284.7408">String senderId</text><ellipse cx="17" cy="296.9547" fill="none" rx="3" ry="3" style="stroke:#038048;stroke-width:1.0;"/><text fill="#000000" font-family="sans-serif" font-size="11" lengthAdjust="spacing" textLength="100.6163" x="26" y="299.7227">String senderName</text><ellipse cx="17" cy="311.9366" fill="none" rx="3" ry="3" style="stroke:#038048;stroke-width:1.0;"/><text fill="#000000" font-family="sans-serif" font-size="11" lengthAdjust="spacing" textLength="97.8443" x="26" y="314.7046">String senderEmail</text><ellipse cx="17" cy="326.9185" fill="none" rx="3" ry="3" style="stroke:#038048;stroke-width:1.0;"/><text fill="#000000" font-family="sans-serif" font-size="11" lengthAdjust="spacing" textLength="85.7114" x="26" y="329.6865">String receiverId</text><ellipse cx="17" cy="341.9004" fill="none" rx="3" ry="3" style="stroke:#038048;stroke-width:1.0;"/><text fill="#000000" font-family="sans-serif" font-size="11" lengthAdjust="spacing" textLength="106.2372" x="26" y="344.6684">String receiverName</text><ellipse cx="17" cy="356.8823" fill="none" rx="3" ry="3" style="stroke:#038048;stroke-width:1.0;"/><text fill="#000000" font-family="sans-serif" font-size="11" lengthAdjust="spacing" textLength="103.4653" x="26" y="359.6502">String receiverEmail</text><ellipse cx="17" cy="371.8642" fill="none" rx="3" ry="3" style="stroke:#038048;stroke-width:1.0;"/><text fill="#000000" font-family="sans-serif" font-size="11" lengthAdjust="spacing" textLength="65.2626" x="26" y="374.6321">String status</text><line style="stroke:#A80036;stroke-width:0.5;" x1="7" x2="137.2372" y1="381.8551" y2="381.8551"/></g><!--class ExpenseCategory--><g id="elem_ExpenseCategory"><rect codeLine="74" fill="#FEFECE" filter="url(#f1e5at20w1wyq5)" height="227.7827" id="ExpenseCategory" rx="2.5" ry="2.5" style="stroke:#A80036;stroke-width:0.5;" width="122.0453" x="543" y="462"/><ellipse cx="558" cy="478" fill="#EB937F" rx="11" ry="11" style="stroke:#181818;stroke-width:1.0;"/><path d="M562.1094,484 L554.3906,484 L554.3906,471.6094 L562.1094,471.6094 L562.1094,473.7656 L556.8438,473.7656 L556.8438,476.4375 L561.6094,476.4375 L561.6094,478.5938 L556.8438,478.5938 L556.8438,481.8438 L562.1094,481.8438 L562.1094,484 Z " fill="#000000"/><text fill="#000000" font-family="sans-serif" font-size="11" lengthAdjust="spacing" textLength="90.0453" x="572" y="482.268">ExpenseCategory</text><line style="stroke:#A80036;stroke-width:0.5;" x1="544" x2="664.0453" y1="494" y2="494"/><text fill="#000000" font-family="sans-serif" font-size="11" lengthAdjust="spacing" textLength="30.9208" x="549" y="509.7589">FOOD</text><text fill="#000000" font-family="sans-serif" font-size="11" lengthAdjust="spacing" textLength="62.5895" x="549" y="524.7408">TRANSPORT</text><text fill="#000000" font-family="sans-serif" font-size="11" lengthAdjust="spacing" textLength="59.2346" x="549" y="539.7227">GROCERIES</text><text fill="#000000" font-family="sans-serif" font-size="11" lengthAdjust="spacing" textLength="89.3523" x="549" y="554.7046">ENTERTAINMENT</text><text fill="#000000" font-family="sans-serif" font-size="11" lengthAdjust="spacing" textLength="50.9186" x="549" y="569.6865">HOUSING</text><text fill="#000000" font-family="sans-serif" font-size="11" lengthAdjust="spacing" textLength="41.3267" x="549" y="584.6684">HEALTH</text><text fill="#000000" font-family="sans-serif" font-size="11" lengthAdjust="spacing" textLength="62.9635" x="549" y="599.6502">EDUCATION</text><text fill="#000000" font-family="sans-serif" font-size="11" lengthAdjust="spacing" textLength="56.1876" x="549" y="614.6321">SHOPPING</text><text fill="#000000" font-family="sans-serif" font-size="11" lengthAdjust="spacing" textLength="35.8157" x="549" y="629.614">OTHER</text><line style="stroke:#A80036;stroke-width:1.0;" x1="544" x2="664.0453" y1="636.837" y2="636.837"/><ellipse cx="554" cy="649.8279" fill="none" rx="3" ry="3" style="stroke:#038048;stroke-width:1.0;"/><text fill="#000000" font-family="sans-serif" font-size="11" lengthAdjust="spacing" textLength="43.4167" x="563" y="652.5959">String id</text><ellipse cx="554" cy="664.8098" fill="none" rx="3" ry="3" style="stroke:#038048;stroke-width:1.0;"/><text fill="#000000" font-family="sans-serif" font-size="11" lengthAdjust="spacing" textLength="60.4886" x="563" y="667.5778">Int labelRes</text><ellipse cx="554" cy="679.7917" fill="none" rx="3" ry="3" style="stroke:#038048;stroke-width:1.0;"/><text fill="#000000" font-family="sans-serif" font-size="11" lengthAdjust="spacing" textLength="57.2436" x="563" y="682.5597">Int iconRes</text></g><!--class SettlementTransfer--><g id="elem_SettlementTransfer"><rect codeLine="90" fill="#FEFECE" filter="url(#f1e5at20w1wyq5)" height="92.9457" id="SettlementTransfer" rx="2.5" ry="2.5" style="stroke:#A80036;stroke-width:0.5;" width="131.9123" x="156" y="259.5"/><ellipse cx="171" cy="275.5" fill="#ADD1B2" rx="11" ry="11" style="stroke:#181818;stroke-width:1.0;"/><path d="M173.9688,281.1406 Q173.3906,281.4375 172.75,281.5781 Q172.1094,281.7344 171.4063,281.7344 Q168.9063,281.7344 167.5781,280.0938 Q166.2656,278.4375 166.2656,275.3125 Q166.2656,272.1875 167.5781,270.5313 Q168.9063,268.875 171.4063,268.875 Q172.1094,268.875 172.75,269.0313 Q173.4063,269.1875 173.9688,269.4844 L173.9688,272.2031 Q173.3438,271.625 172.75,271.3594 Q172.1563,271.0781 171.5313,271.0781 Q170.1875,271.0781 169.5,272.1563 Q168.8125,273.2188 168.8125,275.3125 Q168.8125,277.4063 169.5,278.4844 Q170.1875,279.5469 171.5313,279.5469 Q172.1563,279.5469 172.75,279.2813 Q173.3438,279 173.9688,278.4219 L173.9688,281.1406 Z " fill="#000000"/><text fill="#000000" font-family="sans-serif" font-size="11" lengthAdjust="spacing" textLength="99.9123" x="185" y="279.768">SettlementTransfer</text><line style="stroke:#A80036;stroke-width:0.5;" x1="157" x2="286.9123" y1="291.5" y2="291.5"/><ellipse cx="167" cy="304.4909" fill="none" rx="3" ry="3" style="stroke:#038048;stroke-width:1.0;"/><text fill="#000000" font-family="sans-serif" font-size="11" lengthAdjust="spacing" textLength="79.2104" x="176" y="307.2589">String debtorId</text><ellipse cx="167" cy="319.4728" fill="none" rx="3" ry="3" style="stroke:#038048;stroke-width:1.0;"/><text fill="#000000" font-family="sans-serif" font-size="11" lengthAdjust="spacing" textLength="85.1064" x="176" y="322.2408">String creditorId</text><ellipse cx="167" cy="334.4547" fill="none" rx="3" ry="3" style="stroke:#038048;stroke-width:1.0;"/><text fill="#000000" font-family="sans-serif" font-size="11" lengthAdjust="spacing" textLength="80.8274" x="176" y="337.2227">Double amount</text><line style="stroke:#A80036;stroke-width:0.5;" x1="157" x2="286.9123" y1="344.4457" y2="344.4457"/></g><path d="M324.6981,135.3523 C333.3349,145.9884 342.1234,157.2097 350,168 C365.9171,189.8052 382.205,214.4071 396.3719,236.6847 " fill="none" style="stroke:#A80036;stroke-width:1.0;"/><text fill="#000000" font-family="sans-serif" font-size="13" lengthAdjust="spacing" textLength="50.999" x="365" y="183.897">torna-se</text><text fill="#000000" font-family="sans-serif" font-size="13" lengthAdjust="spacing" textLength="7.163" x="388.3719" y="232.5817">*</text><text fill="#000000" font-family="sans-serif" font-size="13" lengthAdjust="spacing" textLength="7.436" x="316.6981" y="150.2493">1</text><polygon fill="#A80036" points="515.0932,150.1191,508.8386,153.708,509.7459,160.8618,516.0005,157.2729,515.0932,150.1191" style="stroke:#A80036;stroke-width:1.0;"/><path d="M509.7459,160.8618 C496.0384,188.4004 485.5961,209.3789 471.8903,236.9141 " fill="none" style="stroke:#A80036;stroke-width:1.0;"/><text fill="#000000" font-family="sans-serif" font-size="13" lengthAdjust="spacing" textLength="39.702" x="506" y="183.897">possui</text><text fill="#000000" font-family="sans-serif" font-size="13" lengthAdjust="spacing" textLength="7.163" x="463.8903" y="232.8112">*</text><text fill="#000000" font-family="sans-serif" font-size="13" lengthAdjust="spacing" textLength="7.436" x="507.0932" y="165.0161">1</text><polygon fill="#A80036" points="565.8007,150.1191,563.3538,156.9023,568.6742,161.7699,571.1211,154.9867,565.8007,150.1191" style="stroke:#A80036;stroke-width:1.0;"/><path d="M568.6742,161.7699 C573.0969,179.702 575.0835,187.7568 579.8112,206.9253 " fill="none" style="stroke:#A80036;stroke-width:1.0;"/><text fill="#000000" font-family="sans-serif" font-size="13" lengthAdjust="spacing" textLength="46.319" x="576" y="183.897">cont&#233;m</text><text fill="#000000" font-family="sans-serif" font-size="13" lengthAdjust="spacing" textLength="7.163" x="571.8112" y="202.8223">*</text><text fill="#000000" font-family="sans-serif" font-size="13" lengthAdjust="spacing" textLength="7.436" x="557.8007" y="165.0161">1</text><polygon fill="#A80036" points="527.7296,405.2715,520.8909,407.5589,520.3721,414.7514,527.2108,412.4639,527.7296,405.2715" style="stroke:#A80036;stroke-width:1.0;"/><path d="M520.3721,414.7514 C487.4441,457.1778 457.8728,495.2793 431.5128,529.2432 " fill="none" style="stroke:#A80036;stroke-width:1.0;"/><text fill="#000000" font-family="sans-serif" font-size="13" lengthAdjust="spacing" textLength="39.702" x="514" y="438.897">possui</text><text fill="#000000" font-family="sans-serif" font-size="13" lengthAdjust="spacing" textLength="7.163" x="423.5128" y="525.1402">*</text><text fill="#000000" font-family="sans-serif" font-size="13" lengthAdjust="spacing" textLength="7.436" x="519.7296" y="420.1685">1</text><path d="M309.4312,135.3709 C314.3555,145.9103 318.8609,157.0915 322,168 C351.2661,269.701 324.5875,301.1591 345,405 C353.4396,447.9334 368.2081,495.5428 379.6877,529.4312 " fill="none" style="stroke:#A80036;stroke-width:1.0;"/><text fill="#000000" font-family="sans-serif" font-size="13" lengthAdjust="spacing" textLength="29.263" x="347" y="311.397">deve</text><text fill="#000000" font-family="sans-serif" font-size="13" lengthAdjust="spacing" textLength="7.163" x="371.6877" y="525.3282">*</text><text fill="#000000" font-family="sans-serif" font-size="13" lengthAdjust="spacing" textLength="7.436" x="301.4312" y="150.2679">1</text><path d="M216.7547,107.488 C187.9561,121.7983 155.0937,142.0448 132,168 C118.192,183.519 107.1546,202.7175 98.5046,221.7803 " fill="none" style="stroke:#A80036;stroke-width:1.0;"/><text fill="#000000" font-family="sans-serif" font-size="13" lengthAdjust="spacing" textLength="79.053" x="134" y="183.897">envia/recebe</text><text fill="#000000" font-family="sans-serif" font-size="13" lengthAdjust="spacing" textLength="7.163" x="90.5046" y="217.6774">*</text><text fill="#000000" font-family="sans-serif" font-size="13" lengthAdjust="spacing" textLength="7.436" x="208.7547" y="103.3851">1</text><polygon fill="#A80036" points="604,461.7718,608,452.7718,604,456.7718,600,452.7718,604,461.7718" style="stroke:#A80036;stroke-width:1.0;"/><path d="M604,405.2715 C604,423.6464 604,436.9881 604,455.7718 " fill="none" style="stroke:#A80036;stroke-width:1.0;"/><text fill="#000000" font-family="sans-serif" font-size="13" lengthAdjust="spacing" textLength="93.9511" x="606" y="438.897">classificada por</text><text fill="#000000" font-family="sans-serif" font-size="13" lengthAdjust="spacing" textLength="7.436" x="596" y="457.6688">1</text><text fill="#000000" font-family="sans-serif" font-size="13" lengthAdjust="spacing" textLength="7.163" x="596" y="420.1685">*</text><path d="M237.8458,135.1904 C231.751,145.5689 226.3879,156.7394 223,168 C214.1258,197.496 213.9739,232.2078 215.9907,259.3106 " fill="none" style="stroke:#A80036;stroke-width:1.0;"/><text fill="#000000" font-family="sans-serif" font-size="13" lengthAdjust="spacing" textLength="95.4981" x="225" y="183.897">devedor/credor</text><text fill="#000000" font-family="sans-serif" font-size="13" lengthAdjust="spacing" textLength="7.163" x="207.9907" y="255.2076">*</text><text fill="#000000" font-family="sans-serif" font-size="13" lengthAdjust="spacing" textLength="7.436" x="229.8458" y="150.0875">1</text><!--SRC=[dLNHRfim57tdAxpiOLAdgkawJLKqHQ8fQP2w407z00EtgLMmcMtQPLC_QD-n7zl5G0k6gLFpPCuzlZxt-5xdNIdflg0afmTHQQ8Aq9HJnr7tZ9TKqe8aDBtVIr7nR2Lo8OcMb2iC0TSzbhgZcNXaV8_n2dg1DATAhGNN4Vi9vFIJ7NArbYofDBnmJcqE-UKG_5rOIjwllRMtyfgOa1d85dVFv_EpBmPtfHIF4t1tgfyAteRdP-Vpp-Sc76cG8FIXDAg6svzwwe1NnHl5FJbEKzkD0jdc-8W7ozf3bWs_EIrWY411MJw4IYbkMGwxEw75I_ehr5I-bbypdLi7PA1IoKhD16y3FjU4eLqXg1QvPaf_RVXBKa2HWFGpPQaQolbcMA_fgOqiVGkiL9t-3SP8WSKzA_1-bC0Ll4d2V_bqAQea1q8BR0PjaQcsjfVqqAlA6DeAZEvmnfP8a9gbhAHSMywcc6mlvC4g5b90EQDwJJgxw86b0zt18tJuXK3_A4SbwD5pshLamBCGlbUWz6jcAgIEBwz1jwChR71luYBhsXx6YJfydAgBJ2HJckfArGMPAMvjMhMcjXMjW-3IBEBGtKQx88pDrrKOhBpGzoBpvMrZBunTV_iDLmRP13UHlxrgrfvx7MyQukNDoetzODiyCfjWj-jOGRpnGhCwFlw7b_NyvJI1_6K0-oFvV3CHQEpI0j_dk7wgRyVZba6YnSZ5L4B6-lYmaJ7_1n92JbDiTLgd5yenZzViT8QgoUnerettWc0UJeznp9PEymBLf2ERLGgbAZR9wSPqGR0-_UTtWQmEc-0rxTtBQ2kpU1aym0HhsDKBVE0V63sfkoY1le2ZUiVIxBGRPz7yPx5RbjACeY0vSSx47JMQCY5Fweimk_u2]--></g></svg>