<?xml version="1.0" encoding="UTF-8" standalone="no"?><svg xmlns="http://www.w3.org/2000/svg" xmlns:xlink="http://www.w3.org/1999/xlink" contentScriptType="application/ecmascript" contentStyleType="text/css" height="562px" preserveAspectRatio="none" style="width:638px;height:562px;" version="1.1" viewBox="0 0 638 562" width="638px" zoomAndPan="magnify"><defs><filter height="300%" id="fv4xgizb701h3" width="300%" x="-1" y="-1"><feGaussianBlur result="blurOut" stdDeviation="2.0"/><feColorMatrix in="blurOut" result="blurOut2" type="matrix" values="0 0 0 0 0 0 0 0 0 0 0 0 0 0 0 0 0 0 .4 0"/><feOffset dx="4.0" dy="4.0" in="blurOut2" result="blurOut3"/><feBlend in="SourceGraphic" in2="blurOut3" mode="normal"/></filter></defs><g><!--MD5=[3fd616f346a44cd59a91eb10b19e157c]
class User--><rect codeLine="1" fill="#FEFECE" filter="url(#fv4xgizb701h3)" height="92.9457" id="User" style="stroke:#A80036;stroke-width:1.5;" width="90" x="165.5" y="22"/><ellipse cx="194.45" cy="38" fill="#ADD1B2" rx="11" ry="11" style="stroke:#A80036;stroke-width:1.0;"/><path d="M197.4188,43.6406 Q196.8406,43.9375 196.2,44.0781 Q195.5594,44.2344 194.8563,44.2344 Q192.3563,44.2344 191.0281,42.5938 Q189.7156,40.9375 189.7156,37.8125 Q189.7156,34.6875 191.0281,33.0313 Q192.3563,31.375 194.8563,31.375 Q195.5594,31.375 196.2,31.5313 Q196.8563,31.6875 197.4188,31.9844 L197.4188,34.7031 Q196.7938,34.125 196.2,33.8594 Q195.6063,33.5781 194.9813,33.5781 Q193.6375,33.5781 192.95,34.6563 Q192.2625,35.7188 192.2625,37.8125 Q192.2625,39.9063 192.95,40.9844 Q193.6375,42.0469 194.9813,42.0469 Q195.6063,42.0469 196.2,41.7813 Q196.7938,41.5 197.4188,40.9219 L197.4188,43.6406 Z " fill="#000000"/><text fill="#000000" font-family="sans-serif" font-size="12" lengthAdjust="spacing" textLength="27" x="211.55" y="42.656">User</text><line style="stroke:#A80036;stroke-width:1.5;" x1="166.5" x2="254.5" y1="54" y2="54"/><ellipse cx="176.5" cy="65" fill="none" rx="3" ry="3" style="stroke:#038048;stroke-width:1.0;"/><text fill="#000000" font-family="sans-serif" font-size="11" lengthAdjust="spacing" textLength="45" x="185.5" y="69.7589">String id</text><ellipse cx="176.5" cy="79.9819" fill="none" rx="3" ry="3" style="stroke:#038048;stroke-width:1.0;"/><text fill="#000000" font-family="sans-serif" font-size="11" lengthAdjust="spacing" textLength="64" x="185.5" y="84.7408">String name</text><ellipse cx="176.5" cy="94.9638" fill="none" rx="3" ry="3" style="stroke:#038048;stroke-width:1.0;"/><text fill="#000000" font-family="sans-serif" font-size="11" lengthAdjust="spacing" textLength="63" x="185.5" y="99.7227">String email</text><line style="stroke:#A80036;stroke-width:1.5;" x1="166.5" x2="254.5" y1="106.9457" y2="106.9457"/><!--MD5=[41314a0efc36828092cff9ebad2fcafd]
class Group--><rect codeLine="7" fill="#FEFECE" filter="url(#fv4xgizb701h3)" height="122.9094" id="Group" style="stroke:#A80036;stroke-width:1.5;" width="151" x="393" y="7"/><ellipse cx="446.75" cy="23" fill="#ADD1B2" rx="11" ry="11" style="stroke:#A80036;stroke-width:1.0;"/><path d="M449.7188,28.6406 Q449.1406,28.9375 448.5,29.0781 Q447.8594,29.2344 447.1563,29.2344 Q444.6563,29.2344 443.3281,27.5938 Q442.0156,25.9375 442.0156,22.8125 Q442.0156,19.6875 443.3281,18.0313 Q444.6563,16.375 447.1563,16.375 Q447.8594,16.375 448.5,16.5313 Q449.1563,16.6875 449.7188,16.9844 L449.7188,19.7031 Q449.0938,19.125 448.5,18.8594 Q447.9063,18.5781 447.2813,18.5781 Q445.9375,18.5781 445.25,19.6563 Q444.5625,20.7188 444.5625,22.8125 Q444.5625,24.9063 445.25,25.9844 Q445.9375,27.0469 447.2813,27.0469 Q447.9063,27.0469 448.5,26.7813 Q449.0938,26.5 449.7188,25.9219 L449.7188,28.6406 Z " fill="#000000"/><text fill="#000000" font-family="sans-serif" font-size="12" lengthAdjust="spacing" textLength="35" x="467.25" y="27.656">Group</text><line style="stroke:#A80036;stroke-width:1.5;" x1="394" x2="543" y1="39" y2="39"/><ellipse cx="404" cy="50" fill="none" rx="3" ry="3" style="stroke:#038048;stroke-width:1.0;"/><text fill="#000000" font-family="sans-serif" font-size="11" lengthAdjust="spacing" textLength="45" x="413" y="54.7589">String id</text><ellipse cx="404" cy="64.9819" fill="none" rx="3" ry="3" style="stroke:#038048;stroke-width:1.0;"/><text fill="#000000" font-family="sans-serif" font-size="11" lengthAdjust="spacing" textLength="55" x="413" y="69.7408">String title</text><ellipse cx="404" cy="79.9638" fill="none" rx="3" ry="3" style="stroke:#038048;stroke-width:1.0;"/><text fill="#000000" font-family="sans-serif" font-size="11" lengthAdjust="spacing" textLength="94" x="413" y="84.7227">String description</text><ellipse cx="404" cy="94.9457" fill="none" rx="3" ry="3" style="stroke:#038048;stroke-width:1.0;"/><text fill="#000000" font-family="sans-serif" font-size="11" lengthAdjust="spacing" textLength="58" x="413" y="99.7046">Int iconRes</text><ellipse cx="404" cy="109.9276" fill="none" rx="3" ry="3" style="stroke:#038048;stroke-width:1.0;"/><text fill="#000000" font-family="sans-serif" font-size="11" lengthAdjust="spacing" textLength="125" x="413" y="114.6865">List&lt;String&gt; memberIds</text><line style="stroke:#A80036;stroke-width:1.5;" x1="394" x2="543" y1="121.9094" y2="121.9094"/><!--MD5=[f58fd777f29c17413488bea9e7cfcca3]
class Member--><rect codeLine="15" fill="#FEFECE" filter="url(#fv4xgizb701h3)" height="137.8913" id="Member" style="stroke:#A80036;stroke-width:1.5;" width="105" x="290" y="224"/><ellipse cx="316.25" cy="240" fill="#ADD1B2" rx="11" ry="11" style="stroke:#A80036;stroke-width:1.0;"/><path d="M319.2188,245.6406 Q318.6406,245.9375 318,246.0781 Q317.3594,246.2344 316.6563,246.2344 Q314.1563,246.2344 312.8281,244.5938 Q311.5156,242.9375 311.5156,239.8125 Q311.5156,236.6875 312.8281,235.0313 Q314.1563,233.375 316.6563,233.375 Q317.3594,233.375 318,233.5313 Q318.6563,233.6875 319.2188,233.9844 L319.2188,236.7031 Q318.5938,236.125 318,235.8594 Q317.4063,235.5781 316.7813,235.5781 Q315.4375,235.5781 314.75,236.6563 Q314.0625,237.7188 314.0625,239.8125 Q314.0625,241.9063 314.75,242.9844 Q315.4375,244.0469 316.7813,244.0469 Q317.4063,244.0469 318,243.7813 Q318.5938,243.5 319.2188,242.9219 L319.2188,245.6406 Z " fill="#000000"/><text fill="#000000" font-family="sans-serif" font-size="12" lengthAdjust="spacing" textLength="48" x="332.75" y="244.656">Member</text><line style="stroke:#A80036;stroke-width:1.5;" x1="291" x2="394" y1="256" y2="256"/><ellipse cx="301" cy="267" fill="none" rx="3" ry="3" style="stroke:#038048;stroke-width:1.0;"/><text fill="#000000" font-family="sans-serif" font-size="11" lengthAdjust="spacing" textLength="45" x="310" y="271.7589">String id</text><ellipse cx="301" cy="281.9819" fill="none" rx="3" ry="3" style="stroke:#038048;stroke-width:1.0;"/><text fill="#000000" font-family="sans-serif" font-size="11" lengthAdjust="spacing" textLength="79" x="310" y="286.7408">String groupId</text><ellipse cx="301" cy="296.9638" fill="none" rx="3" ry="3" style="stroke:#038048;stroke-width:1.0;"/><text fill="#000000" font-family="sans-serif" font-size="11" lengthAdjust="spacing" textLength="69" x="310" y="301.7227">String userId</text><ellipse cx="301" cy="311.9457" fill="none" rx="3" ry="3" style="stroke:#038048;stroke-width:1.0;"/><text fill="#000000" font-family="sans-serif" font-size="11" lengthAdjust="spacing" textLength="64" x="310" y="316.7046">String name</text><ellipse cx="301" cy="326.9276" fill="none" rx="3" ry="3" style="stroke:#038048;stroke-width:1.0;"/><text fill="#000000" font-family="sans-serif" font-size="11" lengthAdjust="spacing" textLength="63" x="310" y="331.6865">String email</text><ellipse cx="301" cy="341.9094" fill="none" rx="3" ry="3" style="stroke:#038048;stroke-width:1.0;"/><text fill="#000000" font-family="sans-serif" font-size="11" lengthAdjust="spacing" textLength="56" x="310" y="346.6684">String role</text><line style="stroke:#A80036;stroke-width:1.5;" x1="291" x2="394" y1="353.8913" y2="353.8913"/><!--MD5=[a2ad7e4cdba1172ef4ee8a887a0d466e]
class Expense--><rect codeLine="24" fill="#FEFECE" filter="url(#fv4xgizb701h3)" height="167.8551" id="Expense" style="stroke:#A80036;stroke-width:1.5;" width="194" x="430.5" y="209"/><ellipse cx="499.75" cy="225" fill="#ADD1B2" rx="11" ry="11" style="stroke:#A80036;stroke-width:1.0;"/><path d="M502.7188,230.6406 Q502.1406,230.9375 501.5,231.0781 Q500.8594,231.2344 500.1563,231.2344 Q497.6563,231.2344 496.3281,229.5938 Q495.0156,227.9375 495.0156,224.8125 Q495.0156,221.6875 496.3281,220.0313 Q497.6563,218.375 500.1563,218.375 Q500.8594,218.375 501.5,218.5313 Q502.1563,218.6875 502.7188,218.9844 L502.7188,221.7031 Q502.0938,221.125 501.5,220.8594 Q500.9063,220.5781 500.2813,220.5781 Q498.9375,220.5781 498.25,221.6563 Q497.5625,222.7188 497.5625,224.8125 Q497.5625,226.9063 498.25,227.9844 Q498.9375,229.0469 500.2813,229.0469 Q500.9063,229.0469 501.5,228.7813 Q502.0938,228.5 502.7188,227.9219 L502.7188,230.6406 Z " fill="#000000"/><text fill="#000000" font-family="sans-serif" font-size="12" lengthAdjust="spacing" textLength="47" x="520.25" y="229.656">Expense</text><line style="stroke:#A80036;stroke-width:1.5;" x1="431.5" x2="623.5" y1="241" y2="241"/><ellipse cx="441.5" cy="252" fill="none" rx="3" ry="3" style="stroke:#038048;stroke-width:1.0;"/><text fill="#000000" font-family="sans-serif" font-size="11" lengthAdjust="spacing" textLength="45" x="450.5" y="256.7589">String id</text><ellipse cx="441.5" cy="266.9819" fill="none" rx="3" ry="3" style="stroke:#038048;stroke-width:1.0;"/><text fill="#000000" font-family="sans-serif" font-size="11" lengthAdjust="spacing" textLength="79" x="450.5" y="271.7408">String groupId</text><ellipse cx="441.5" cy="281.9638" fill="none" rx="3" ry="3" style="stroke:#038048;stroke-width:1.0;"/><text fill="#000000" font-family="sans-serif" font-size="11" lengthAdjust="spacing" textLength="55" x="450.5" y="286.7227">String title</text><ellipse cx="441.5" cy="296.9457" fill="none" rx="3" ry="3" style="stroke:#038048;stroke-width:1.0;"/><text fill="#000000" font-family="sans-serif" font-size="11" lengthAdjust="spacing" textLength="94" x="450.5" y="301.7046">String description</text><ellipse cx="441.5" cy="311.9276" fill="none" rx="3" ry="3" style="stroke:#038048;stroke-width:1.0;"/><text fill="#000000" font-family="sans-serif" font-size="11" lengthAdjust="spacing" textLength="82" x="450.5" y="316.6865">Double amount</text><ellipse cx="441.5" cy="326.9094" fill="none" rx="3" ry="3" style="stroke:#038048;stroke-width:1.0;"/><text fill="#000000" font-family="sans-serif" font-size="11" lengthAdjust="spacing" textLength="58" x="450.5" y="331.6684">String date</text><ellipse cx="441.5" cy="341.8913" fill="none" rx="3" ry="3" style="stroke:#038048;stroke-width:1.0;"/><text fill="#000000" font-family="sans-serif" font-size="11" lengthAdjust="spacing" textLength="76" x="450.5" y="346.6502">String payerId</text><ellipse cx="441.5" cy="356.8732" fill="none" rx="3" ry="3" style="stroke:#038048;stroke-width:1.0;"/><text fill="#000000" font-family="sans-serif" font-size="11" lengthAdjust="spacing" textLength="168" x="450.5" y="361.6321">List&lt;ExpenseShare&gt; participants</text><line style="stroke:#A80036;stroke-width:1.5;" x1="431.5" x2="623.5" y1="368.8551" y2="368.8551"/><!--MD5=[46102494787186c614c5140ad9b63011]
class ExpenseShare--><rect codeLine="35" fill="#FEFECE" filter="url(#fv4xgizb701h3)" height="92.9457" id="ExpenseShare" style="stroke:#A80036;stroke-width:1.5;" width="139" x="170" y="456"/><ellipse cx="197.15" cy="472" fill="#ADD1B2" rx="11" ry="11" style="stroke:#A80036;stroke-width:1.0;"/><path d="M200.1188,477.6406 Q199.5406,477.9375 198.9,478.0781 Q198.2594,478.2344 197.5563,478.2344 Q195.0563,478.2344 193.7281,476.5938 Q192.4156,474.9375 192.4156,471.8125 Q192.4156,468.6875 193.7281,467.0313 Q195.0563,465.375 197.5563,465.375 Q198.2594,465.375 198.9,465.5313 Q199.5563,465.6875 200.1188,465.9844 L200.1188,468.7031 Q199.4938,468.125 198.9,467.8594 Q198.3063,467.5781 197.6813,467.5781 Q196.3375,467.5781 195.65,468.6563 Q194.9625,469.7188 194.9625,471.8125 Q194.9625,473.9063 195.65,474.9844 Q196.3375,476.0469 197.6813,476.0469 Q198.3063,476.0469 198.9,475.7813 Q199.4938,475.5 200.1188,474.9219 L200.1188,477.6406 Z " fill="#000000"/><text fill="#000000" font-family="sans-serif" font-size="12" lengthAdjust="spacing" textLength="80" x="213.85" y="476.656">ExpenseShare</text><line style="stroke:#A80036;stroke-width:1.5;" x1="171" x2="308" y1="488" y2="488"/><ellipse cx="181" cy="499" fill="none" rx="3" ry="3" style="stroke:#038048;stroke-width:1.0;"/><text fill="#000000" font-family="sans-serif" font-size="11" lengthAdjust="spacing" textLength="69" x="190" y="503.7589">String userId</text><ellipse cx="181" cy="513.9819" fill="none" rx="3" ry="3" style="stroke:#038048;stroke-width:1.0;"/><text fill="#000000" font-family="sans-serif" font-size="11" lengthAdjust="spacing" textLength="113" x="190" y="518.7408">Double amountOwed</text><ellipse cx="181" cy="528.9638" fill="none" rx="3" ry="3" style="stroke:#038048;stroke-width:1.0;"/><text fill="#000000" font-family="sans-serif" font-size="11" lengthAdjust="spacing" textLength="69" x="190" y="533.7227">Boolean paid</text><line style="stroke:#A80036;stroke-width:1.5;" x1="171" x2="308" y1="540.9457" y2="540.9457"/><!--MD5=[79307d5284cfcab6b30f925d912eab45]
class FriendRequest--><rect codeLine="41" fill="#FEFECE" filter="url(#fv4xgizb701h3)" height="167.8551" id="FriendRequest" style="stroke:#A80036;stroke-width:1.5;" width="133" x="7" y="209"/><ellipse cx="31.45" cy="225" fill="#ADD1B2" rx="11" ry="11" style="stroke:#A80036;stroke-width:1.0;"/><path d="M34.4188,230.6406 Q33.8406,230.9375 33.2,231.0781 Q32.5594,231.2344 31.8563,231.2344 Q29.3563,231.2344 28.0281,229.5938 Q26.7156,227.9375 26.7156,224.8125 Q26.7156,221.6875 28.0281,220.0313 Q29.3563,218.375 31.8563,218.375 Q32.5594,218.375 33.2,218.5313 Q33.8563,218.6875 34.4188,218.9844 L34.4188,221.7031 Q33.7938,221.125 33.2,220.8594 Q32.6063,220.5781 31.9813,220.5781 Q30.6375,220.5781 29.95,221.6563 Q29.2625,222.7188 29.2625,224.8125 Q29.2625,226.9063 29.95,227.9844 Q30.6375,229.0469 31.9813,229.0469 Q32.6063,229.0469 33.2,228.7813 Q33.7938,228.5 34.4188,227.9219 L34.4188,230.6406 Z " fill="#000000"/><text fill="#000000" font-family="sans-serif" font-size="12" lengthAdjust="spacing" textLength="80" x="47.55" y="229.656">FriendRequest</text><line style="stroke:#A80036;stroke-width:1.5;" x1="8" x2="139" y1="241" y2="241"/><ellipse cx="18" cy="252" fill="none" rx="3" ry="3" style="stroke:#038048;stroke-width:1.0;"/><text fill="#000000" font-family="sans-serif" font-size="11" lengthAdjust="spacing" textLength="45" x="27" y="256.7589">String id</text><ellipse cx="18" cy="266.9819" fill="none" rx="3" ry="3" style="stroke:#038048;stroke-width:1.0;"/><text fill="#000000" font-family="sans-serif" font-size="11" lengthAdjust="spacing" textLength="82" x="27" y="271.7408">String senderId</text><ellipse cx="18" cy="281.9638" fill="none" rx="3" ry="3" style="stroke:#038048;stroke-width:1.0;"/><text fill="#000000" font-family="sans-serif" font-size="11" lengthAdjust="spacing" textLength="101" x="27" y="286.7227">String senderName</text><ellipse cx="18" cy="296.9457" fill="none" rx="3" ry="3" style="stroke:#038048;stroke-width:1.0;"/><text fill="#000000" font-family="sans-serif" font-size="11" lengthAdjust="spacing" textLength="99" x="27" y="301.7046">String senderEmail</text><ellipse cx="18" cy="311.9276" fill="none" rx="3" ry="3" style="stroke:#038048;stroke-width:1.0;"/><text fill="#000000" font-family="sans-serif" font-size="11" lengthAdjust="spacing" textLength="88" x="27" y="316.6865">String receiverId</text><ellipse cx="18" cy="326.9094" fill="none" rx="3" ry="3" style="stroke:#038048;stroke-width:1.0;"/><text fill="#000000" font-family="sans-serif" font-size="11" lengthAdjust="spacing" textLength="107" x="27" y="331.6684">String receiverName</text><ellipse cx="18" cy="341.8913" fill="none" rx="3" ry="3" style="stroke:#038048;stroke-width:1.0;"/><text fill="#000000" font-family="sans-serif" font-size="11" lengthAdjust="spacing" textLength="105" x="27" y="346.6502">String receiverEmail</text><ellipse cx="18" cy="356.8732" fill="none" rx="3" ry="3" style="stroke:#038048;stroke-width:1.0;"/><text fill="#000000" font-family="sans-serif" font-size="11" lengthAdjust="spacing" textLength="66" x="27" y="361.6321">String status</text><line style="stroke:#A80036;stroke-width:1.5;" x1="8" x2="139" y1="368.8551" y2="368.8551"/><!--MD5=[d3ade51fe0a7a3aa7f8d778fcc012c2a]
link User to Member--><path codeLine="53" d="M237.53,115.06 C256.09,146.34 281.04,188.41 301.97,223.68 " fill="none" id="User-Member" style="stroke:#A80036;stroke-width:1.0;"/><polygon fill="#000000" points="280.0511,174.1532,277.9637,164.8746,272.9085,167.8736,280.0511,174.1532" style="stroke:#000000;stroke-width:1.0;"/><text fill="#000000" font-family="sans-serif" font-size="13" lengthAdjust="spacing" textLength="50" x="286.5" y="174.897">torna-se</text><text fill="#000000" font-family="sans-serif" font-size="13" lengthAdjust="spacing" textLength="7" x="233.8389" y="136.7533">1</text><text fill="#000000" font-family="sans-serif" font-size="13" lengthAdjust="spacing" textLength="7" x="290.1542" y="212.11">*</text><!--MD5=[06fce0c7a455ab2d19b653d2729f8b5e]
reverse link Group to Member--><path codeLine="54" d="M427.74,141.47 C412.81,167.85 395.96,197.6 381.2,223.66 " fill="none" id="Group-backto-Member" style="stroke:#A80036;stroke-width:1.0;"/><polygon fill="#A80036" points="434.24,130.01,427.8043,133.263,428.3318,140.4548,434.7675,137.2018,434.24,130.01" style="stroke:#A80036;stroke-width:1.0;"/><polygon fill="#000000" points="419.0363,174.2039,426.0506,167.7812,420.9358,164.8849,419.0363,174.2039" style="stroke:#000000;stroke-width:1.0;"/><text fill="#000000" font-family="sans-serif" font-size="13" lengthAdjust="spacing" textLength="39" x="430.5" y="174.897">possui</text><text fill="#000000" font-family="sans-serif" font-size="13" lengthAdjust="spacing" textLength="7" x="423.11" y="151.6079">1</text><text fill="#000000" font-family="sans-serif" font-size="13" lengthAdjust="spacing" textLength="7" x="378.05" y="212.0878">*</text><!--MD5=[c18d56e384c7852d7986a9c9173b0634]
reverse link Group to Expense--><path codeLine="55" d="M487.88,142.58 C493.51,163.82 499.7,187.17 505.48,208.97 " fill="none" id="Group-backto-Expense" style="stroke:#A80036;stroke-width:1.0;"/><polygon fill="#A80036" points="484.54,130.01,482.2181,136.8371,487.627,141.6061,489.9489,134.7791,484.54,130.01" style="stroke:#A80036;stroke-width:1.0;"/><polygon fill="#000000" points="501.7812,174.6861,502.3043,165.1899,496.6227,166.6961,501.7812,174.6861" style="stroke:#000000;stroke-width:1.0;"/><text fill="#000000" font-family="sans-serif" font-size="13" lengthAdjust="spacing" textLength="46" x="509.5" y="174.897">contém</text><text fill="#000000" font-family="sans-serif" font-size="13" lengthAdjust="spacing" textLength="7" x="478.9116" y="151.6079">1</text><text fill="#000000" font-family="sans-serif" font-size="13" lengthAdjust="spacing" textLength="7" x="496.0476" y="197.0883">*</text><!--MD5=[bcbabff17ba3fa3f9c3289580f7ab587]
reverse link Expense to ExpenseShare--><path codeLine="56" d="M419.63,371.86 C417.23,373.59 414.85,375.3 412.5,377 C376.18,403.18 335.54,432.42 302.78,455.99 " fill="none" id="Expense-backto-ExpenseShare" style="stroke:#A80036;stroke-width:1.0;"/><polygon fill="#A80036" points="430.26,364.2,423.0537,364.4638,420.5256,371.2172,427.7319,370.9534,430.26,364.2" style="stroke:#A80036;stroke-width:1.0;"/><polygon fill="#000000" points="370.4423,419.7745,379.5,416.8745,376.0656,412.1044,370.4423,419.7745" style="stroke:#000000;stroke-width:1.0;"/><text fill="#000000" font-family="sans-serif" font-size="13" lengthAdjust="spacing" textLength="39" x="383.5" y="421.897">possui</text><text fill="#000000" font-family="sans-serif" font-size="13" lengthAdjust="spacing" textLength="7" x="415.5471" y="365.9301">1</text><text fill="#000000" font-family="sans-serif" font-size="13" lengthAdjust="spacing" textLength="7" x="305.3074" y="444.1804">*</text><!--MD5=[5a7b82eb6f6576525ca018c0543a0ce6]
link User to ExpenseShare--><path codeLine="57" d="M212.75,115.11 C215.8,175.18 221.68,284.07 228.5,377 C230.42,403.19 232.99,432.43 235.15,455.99 " fill="none" id="User-ExpenseShare" style="stroke:#A80036;stroke-width:1.0;"/><polygon fill="#000000" points="233.8279,298.3422,236.1674,289.1239,230.3022,289.5093,233.8279,298.3422" style="stroke:#000000;stroke-width:1.0;"/><text fill="#000000" font-family="sans-serif" font-size="13" lengthAdjust="spacing" textLength="29" x="242.5" y="298.397">deve</text><text fill="#000000" font-family="sans-serif" font-size="13" lengthAdjust="spacing" textLength="7" x="205.5742" y="136.8103">1</text><text fill="#000000" font-family="sans-serif" font-size="13" lengthAdjust="spacing" textLength="7" x="226.8989" y="444.1804">*</text><!--MD5=[dd1bb8c9eb467f9531ffd1505d1a7934]
link User to FriendRequest--><path codeLine="58" d="M165.21,92.64 C139.62,108.15 109.46,131.04 92.5,160 C83.9,174.68 78.67,191.82 75.59,208.78 " fill="none" id="User-FriendRequest" style="stroke:#A80036;stroke-width:1.0;"/><polygon fill="#000000" points="94.4454,173.8115,102.2979,168.446,97.6445,164.8551,94.4454,173.8115" style="stroke:#000000;stroke-width:1.0;"/><text fill="#000000" font-family="sans-serif" font-size="13" lengthAdjust="spacing" textLength="77" x="106.5" y="174.897">envia/recebe</text><text fill="#000000" font-family="sans-serif" font-size="13" lengthAdjust="spacing" textLength="7" x="150.4341" y="92.0902">1</text><text fill="#000000" font-family="sans-serif" font-size="13" lengthAdjust="spacing" textLength="7" x="68.46" y="197.1686">*</text><!--MD5=[d1925362341ab030468b4b1d14a0fe6a]
@startuml
class User {
    + String id
    + String name
    + String email
}

class Group {
    + String id
    + String title
    + String description
    + Int iconRes
    + List<String> memberIds
}

class Member {
    + String id
    + String groupId
    + String userId
    + String name
    + String email
    + String role
}

class Expense {
    + String id
    + String groupId
    + String title
    + String description
    + Double amount
    + String date
    + String payerId
    + List<ExpenseShare> participants
}

class ExpenseShare {
    + String userId
    + Double amountOwed
    + Boolean paid
}

class FriendRequest {
    + String id
    + String senderId
    + String senderName
    + String senderEmail
    + String receiverId
    + String receiverName
    + String receiverEmail
    + String status
}

' Relacionamentos Traduzidos
User "1" - - "*" Member : torna-se >
Group "1" *- - "*" Member : possui >
Group "1" *- - "*" Expense : contém >
Expense "1" *- - "*" ExpenseShare : possui >
User "1" - - "*" ExpenseShare : deve >
User "1" - - "*" FriendRequest : envia/recebe >

@enduml

@startuml
class User {
    + String id
    + String name
    + String email
}

class Group {
    + String id
    + String title
    + String description
    + Int iconRes
    + List<String> memberIds
}

class Member {
    + String id
    + String groupId
    + String userId
    + String name
    + String email
    + String role
}

class Expense {
    + String id
    + String groupId
    + String title
    + String description
    + Double amount
    + String date
    + String payerId
    + List<ExpenseShare> participants
}

class ExpenseShare {
    + String userId
    + Double amountOwed
    + Boolean paid
}

class FriendRequest {
    + String id
    + String senderId
    + String senderName
    + String senderEmail
    + String receiverId
    + String receiverName
    + String receiverEmail
    + String status
}

User "1" - - "*" Member : torna-se >
Group "1" *- - "*" Member : possui >
Group "1" *- - "*" Expense : contém >
Expense "1" *- - "*" ExpenseShare : possui >
User "1" - - "*" ExpenseShare : deve >
User "1" - - "*" FriendRequest : envia/recebe >

@enduml

PlantUML version 1.2021.00(Sun Jan 10 07:25:05 GMT-03:00 2021)
(MIT source distribution)
Java Runtime: Java(TM) SE Runtime Environment
JVM: Java HotSpot(TM) 64-Bit Server VM
Default Encoding: UTF-8
Language: en
Country: US
--></g></svg>